{"title":"Tiger Zinda Hai 2017 720p DVDSCR-Rip x264 AC3 Mafiaking M2Tv","magnet":"magnet:?xt=urn:btih:0b3e1cb7c892ebb80190871a48af2aa1005036b7&dn=Tiger+Zinda+Hai+2017+720p+DVDSCR-Rip+x264+AC3+Mafiaking+M2Tv&tr=udp%3A%2F%2Ftracker.leechers-paradise.org%3A6969&tr=udp%3A%2F%2Fzer0day.ch%3A1337&tr=udp%3A%2F%2Fopen.demonii.com%3A1337&tr=udp%3A%2F%2Ftracker.coppersurfer.tk%3A6969&tr=udp%3A%2F%2Fexodus.desync.com%3A6969","uploader":"mafiaaking","categoryP":"video","categoryS":"movies","size":"1420111227","seeders":"0","leechers":"0","description":"Tiger Zinda Hai (2017) - 720p - DVDSCR-Rip - Hindi - x264 - AC3 - Mafiaking - M2Tv\r\n <a href=\"\nhttp://www.imdb.com/title/tt5956100/\" rel=\"nofollow\" target=\"_NEW\">\nhttp://www.imdb.com/title/tt5956100/</a>\r\n\r\nRatings: 6.7/10\r\n\r\nGenere:      Action, Adventure, Thriller\r\n\r\nGeneral\r\nComplete name               : Tiger Zinda Hai (2017) - 720p - DVDSCR-Rip - Hindi - x264 - AC3 - Mafiaking - M2Tv.mkv\r\nFormat                      : Matroska\r\nFormat version              : Version 4 / Version 2\r\nFile size                   : 1.32 GiB\r\nDuration                    : 2 h 40 min\r\nOverall bit rate            : 1 176 kb/s\r\nMovie name                  : Tiger Zinda Hai (2017) - 720p - DVDSCR-Rip - Hindi - x264 - AC3 - Mafiaking - M2Tv\r\nVideo\r\nID                          : 1\r\nFormat                      : AVC\r\nCodec ID                    : V_MPEG4/ISO/AVC\r\nDuration                    : 2 h 40 min\r\nBit rate                    : 950 kb/s\r\nWidth                       : 1 280 pixels\r\nHeight                      : 544 pixels\r\nDisplay aspect ratio        : 2.35:1\r\nFrame rate                  : 29.970 (30000/1001) FPS\r\nStream size                 : 1.06 GiB (81%)\r\nTitle                       : Mafiaking\r\nLanguage                    : Hindi\r\nDefault                     : Yes\r\nForced                      : No\r\n\r\nAudio\r\nID                          : 2\r\nFormat                      : AC-3\r\nDuration                    : 2 h 40 min\r\nBit rate mode               : Constant\r\nBit rate                    : 224 kb/s\r\nChannel(s)                  : 6 channels\r\nStream size                 : 257 MiB (19%)\r\nTitle                       : Mafiaking\r\nLanguage                    : Hindi\r\nService kind                : Complete Main\r\nDefault                     : Yes\r\nForced                      : No\r\n\r\nScreens:-\r\n <a href=\"\nhttps://www.lookimg.com/image/onR1R\" rel=\"nofollow\" target=\"_NEW\">\nhttps://www.lookimg.com/image/onR1R</a> <a href=\"\nhttps://www.lookimg.com/image/onsAe\" rel=\"nofollow\" target=\"_NEW\">\nhttps://www.lookimg.com/image/onsAe</a> <a href=\"\nhttps://www.lookimg.com/image/on4wA\" rel=\"nofollow\" target=\"_NEW\">\nhttps://www.lookimg.com/image/on4wA</a> <a href=\"\nhttps://www.lookimg.com/image/on1iU\" rel=\"nofollow\" target=\"_NEW\">\nhttps://www.lookimg.com/image/on1iU</a> <a href=\"\nhttps://www.lookimg.com/image/onHvq\" rel=\"nofollow\" target=\"_NEW\">\nhttps://www.lookimg.com/image/onHvq</a> <a href=\"\nhttps://www.lookimg.com/image/on5pn\" rel=\"nofollow\" target=\"_NEW\">\nhttps://www.lookimg.com/image/on5pn</a> <a href=\"\nhttps://www.lookimg.com/image/onJCW\" rel=\"nofollow\" target=\"_NEW\">\nhttps://www.lookimg.com/image/onJCW</a> <a href=\"\nhttps://www.lookimg.com/image/onI0Q\" rel=\"nofollow\" target=\"_NEW\">\nhttps://www.lookimg.com/image/onI0Q</a> <a href=\"\nhttps://www.lookimg.com/image/opviV\" rel=\"nofollow\" target=\"_NEW\">\nhttps://www.lookimg.com/image/opviV</a> <a href=\"\nhttps://www.lookimg.com/image/onarh\" rel=\"nofollow\" target=\"_NEW\">\nhttps://www.lookimg.com/image/onarh</a> <a href=\"\nhttps://www.lookimg.com/image/onyor\" rel=\"nofollow\" target=\"_NEW\">\nhttps://www.lookimg.com/image/onyor</a> <a href=\"\nhttps://www.lookimg.com/image/op9wj\" rel=\"nofollow\" target=\"_NEW\">\nhttps://www.lookimg.com/image/op9wj</a> <a href=\"\nhttps://www.lookimg.com/image/opP5o\" rel=\"nofollow\" target=\"_NEW\">\nhttps://www.lookimg.com/image/opP5o</a> <a href=\"\nhttps://www.lookimg.com/image/opZAH\" rel=\"nofollow\" target=\"_NEW\">\nhttps://www.lookimg.com/image/opZAH</a>","last_updated":"2018-01-28T12:11:13.769Z","parsed":{"xt":"urn:btih:0b3e1cb7c892ebb80190871a48af2aa1005036b7","dn":"Tiger Zinda Hai 2017 720p DVDSCR-Rip x264 AC3 Mafiaking M2Tv","tr":["udp://exodus.desync.com:6969","udp://open.demonii.com:1337","udp://tracker.coppersurfer.tk:6969","udp://tracker.leechers-paradise.org:6969","udp://zer0day.ch:1337"],"infoHash":"0b3e1cb7c892ebb80190871a48af2aa1005036b7","infoHashBuffer":{"type":"Buffer","data":[11,62,28,183,200,146,235,184,1,144,135,26,72,175,42,161,0,80,54,183]},"name":"Tiger Zinda Hai 2017 720p DVDSCR-Rip x264 AC3 Mafiaking M2Tv","announce":["udp://exodus.desync.com:6969","udp://open.demonii.com:1337","udp://tracker.coppersurfer.tk:6969","udp://tracker.leechers-paradise.org:6969","udp://zer0day.ch:1337"],"urlList":[]}}